# Blender 4.0.2
# www.blender.org
mtllib ice.mtl
o Cube
v 11.053205 6.508484 -10.991732
v 8.266487 0.206946 -11.253645
v 11.053205 6.508484 9.184813
v 8.266487 0.206946 15.465239
v -9.123338 6.508484 -10.991732
v -9.160876 0.206946 -11.253645
v -16.338823 6.508484 15.940613
v -9.160876 0.206946 15.465239
v 11.395450 15.220048 7.391265
v -10.523754 15.220048 10.030932
v 11.395450 15.220048 -7.391265
v -8.556769 15.220048 -4.691815
v 4.809481 25.867653 6.241266
v -13.809952 25.867653 10.030932
v 4.809481 25.867653 -8.541265
v -11.842967 25.867653 -4.691815
v -1.017202 37.149796 13.223878
v -7.333404 37.149796 14.509433
v -1.017202 37.149796 8.209255
v -6.666151 37.149796 9.515090
vn -0.0583 0.4955 -0.8666
vn 0.1329 0.4525 0.8818
vn -0.8670 -0.4844 -0.1166
vn -0.0000 -1.0000 -0.0000
vn 0.9146 -0.4044 -0.0000
vn -0.0000 0.0415 -0.9991
vn 0.1554 0.1250 0.9799
vn 0.1756 0.3455 0.9218
vn -0.9181 0.3408 -0.2024
vn 0.9992 -0.0393 -0.0000
vn -0.1353 0.7993 -0.5855
vn -0.1745 -0.1336 -0.9755
vn 0.8505 0.5260 -0.0000
vn -0.9478 -0.2925 -0.1266
vn -0.0000 1.0000 -0.0000
vn 0.8885 0.4589 -0.0000
vn -0.8418 0.5279 -0.1125
vn 0.1781 -0.4497 0.8752
vt 0.625000 0.500000
vt 0.625000 0.250000
vt 0.375000 0.750000
vt 0.625000 0.750000
vt 0.625000 1.000000
vt 0.375000 1.000000
vt 0.375000 0.000000
vt 0.625000 0.000000
vt 0.375000 0.250000
vt 0.125000 0.500000
vt 0.375000 0.500000
vt 0.125000 0.750000
vt 0.875000 0.500000
vt 0.875000 0.750000
s 0
usemtl Material
f 1/1/1 5/2/1 12/2/1 11/1/1
f 4/3/2 3/4/2 7/5/2 8/6/2
f 8/7/3 7/8/3 5/2/3 6/9/3
f 6/10/4 2/11/4 4/3/4 8/12/4
f 2/11/5 1/1/5 3/4/5 4/3/5
f 6/9/6 5/2/6 1/1/6 2/11/6
f 10/5/7 9/4/7 13/4/7 14/5/7
f 7/5/8 3/4/8 9/4/8 10/5/8
f 5/2/9 7/8/9 10/8/9 12/2/9
f 3/4/10 1/1/10 11/1/10 9/4/10
f 15/1/11 16/2/11 20/2/11 19/1/11
f 11/1/12 12/2/12 16/2/12 15/1/12
f 9/4/13 11/1/13 15/1/13 13/4/13
f 12/2/14 10/8/14 14/8/14 16/2/14
f 19/1/15 20/13/15 18/14/15 17/4/15
f 13/4/16 15/1/16 19/1/16 17/4/16
f 16/2/17 14/8/17 18/8/17 20/2/17
f 14/5/18 13/4/18 17/4/18 18/5/18
